<?xml version="1.0" encoding="UTF-8"?>
<svg id="Capa_2" data-name="Capa 2" xmlns="http://www.w3.org/2000/svg" viewBox="0 0 80.93 128.11">
  <defs>
    <style>
      .cls-1 {
        fill: #12100b;
        stroke: #fff;
        stroke-miterlimit: 10;
        stroke-width: 2px;
      }
    </style>
  </defs>
  <g id="Capa_1-2" data-name="Capa 1">
    <path class="cls-1" d="m75.27,109.71h-2.36v-1.03c1.63-.73,2.78-2.36,2.78-4.26v-2.72c0-2.56-2.1-4.66-4.66-4.66h-1.63c16.89-24.93,2.02-49.1,2.02-49.1-1.63-3.52.93-6.86-1.08-9.95-7.57-11.59-16.49-19.58-16.49-19.58-8.57-5.98-5.65-11.37-5.65-11.37.47-3.49-2.34-3.57-2.34-3.57l-.11,2.35-2.43,4.61-2.36-.86c-3.3-1.85,3.45-11.53-.93-7.7-4.38,3.82-3.73,8.53-3.73,8.53-.8,1.19-8.19,4.99-8.19,4.99l-2.72.87-1.83,3.3c-.86,1.02-16.86,7.18-16.86,7.18l-2.85.51s1.42-.11-.93,1.13c-2.31,1.24-1.09,4.92-1.09,4.92-1.66,3.28-.52,5.02.66,5.88h0s.77,4.06,5,3.85h0c2.19-.12,3.92-2.56,3.92-2.56.42,1.12,4.79.28,4.79.28,0,0,2.64.89,3.44.27.78-.62,2.11,1.03,2.61.41.49-.63,3.35-.67,3.35-.67,4.46,3.54,8.87,1.53,8.87,1.53,10.75,1.36-6.66,28.9-6.66,28.9l-1.28,2.57c-2.85,11.25-1.47,17.88,2.11,21.12l-.94,2.15h-3.4c-2.56,0-4.66,2.1-4.66,4.66v2.72c0,1.42.65,2.69,1.66,3.55h0v1.73h-2.41c-2.56,0-4.66,2.1-4.66,4.66v8.08c0,2.56,2.1,4.66,4.66,4.66h56.38c2.56,0,4.66-2.1,4.66-4.66v-8.08c0-2.56-2.1-4.66-4.66-4.66Z"/>
  </g>
</svg>