<?xml version="1.0" encoding="UTF-8"?>
<svg id="Capa_2" data-name="Capa 2" xmlns="http://www.w3.org/2000/svg" viewBox="0 0 71.03 126.61">
  <defs>
    <style>
      .cls-1 {
        fill: #12100b;
        stroke: #fff;
        stroke-miterlimit: 10;
        stroke-width: 2px;
      }
    </style>
  </defs>
  <g id="Capa_1-2" data-name="Capa 1">
    <path class="cls-1" d="m60.68,106.68v-.97c2.91-.85,5-3.65,4.7-6.88-.32-3.41-3.37-5.92-6.8-5.92-.9,0-1.68-.63-1.87-1.5l-1.32-3.53c-.68-3.08-1.56-6.12-2.67-9.08-3.11-8.33-9.69,5.61-4.48-15.31.35-1.4,1.24-2.6,2.51-3.3,1.89-1.04,4.25-3.04,1.78-5.78-1.03-1.15-1.6-2.63-1.73-4.18-.06-.72-.41-1.43-1.37-1.86-1.76-.79-2.87-2.51-3.09-4.38,7.16-3.86,12.03-11.42,12.03-20.13,0-12.62-10.23-22.86-22.86-22.86S12.66,11.23,12.66,23.86c0,8.7,4.87,16.27,12.03,20.13-.23,1.88-1.33,3.59-3.09,4.38-.97.43-1.31,1.15-1.37,1.86-.13,1.54-.69,3.03-1.73,4.18-2.46,2.74-.11,4.74,1.78,5.78,1.26.7,2.16,1.9,2.51,3.3,5.21,20.92-1.37,6.98-4.48,15.31-1.11,2.96-1.99,5.99-2.67,9.08l-1.32,3.53c-.19.88-.97,1.5-1.87,1.5-3.43,0-6.48,2.51-6.8,5.92-.31,3.24,1.79,6.03,4.7,6.88v.97c-5.39.07-9.73,4.69-9.32,10.18.37,5,4.77,8.75,9.79,8.75h49.4c5.01,0,9.41-3.75,9.79-8.75.41-5.49-3.93-10.11-9.32-10.18Z"/>
  </g>
</svg>