<?xml version="1.0" encoding="UTF-8"?>
<svg id="Capa_2" data-name="Capa 2" xmlns="http://www.w3.org/2000/svg" viewBox="0 0 67.7 154.82">
  <defs>
    <style>
      .cls-1 {
        fill: #12100b;
        stroke: #fff;
        stroke-miterlimit: 10;
        stroke-width: 2px;
      }
    </style>
  </defs>
  <g id="Capa_1-2" data-name="Capa 1">
    <path class="cls-1" d="m58.11,136.42v-.9c2.5-.73,4.34-3.03,4.34-5.75,0-3.31-2.71-6.02-6.02-6.02h-1.67l-2.62-11.87s-12.32-26.9-4.85-52.18c0,0,8.8-2.92,1.23-7.78,0,0,2.56-4.54-3.63-4.21,0,0-2.08-8.75,7.26-18.15,0,0-.04-.02-.1-.06v-6.69c-4.25-1.28-8.33-1.97-12.1-2.29,0-.07.02-.14.02-.22,0-.92-.76-1.68-1.68-1.68h-.79v-6.22h3.69c1.41,0,2.57-1.16,2.57-2.57s-1.16-2.57-2.57-2.57h-3.69v-3.69c0-1.41-1.16-2.57-2.57-2.57s-2.57,1.16-2.57,2.57v3.69h-3.69c-1.41,0-2.57,1.16-2.57,2.57s1.16,2.57,2.57,2.57h3.69v6.22h-.79c-.92,0-1.68.76-1.68,1.68,0,.07.01.13.02.2-7.38.59-12.1,2.31-12.1,2.31v6.75c9.33,9.4,7.26,18.15,7.26,18.15-6.18-.32-3.63,4.21-3.63,4.21-7.57,4.86,1.23,7.78,1.23,7.78,7.47,25.28-4.85,52.18-4.85,52.18l-2.62,11.87h-2.75c-3.31,0-6.02,2.71-6.02,6.02,0,2.56,1.63,4.74,3.89,5.61v1.03h-.6c-4.79,0-8.7,3.92-8.7,8.7s3.92,8.7,8.7,8.7h48.3c4.79,0,8.7-3.92,8.7-8.7s-3.86-8.64-8.59-8.7Z"/>
  </g>
</svg>