<?xml version="1.0" encoding="UTF-8"?>
<svg id="Capa_2" data-name="Capa 2" xmlns="http://www.w3.org/2000/svg" viewBox="0 0 65.46 140.72">
  <defs>
    <style>
      .cls-1 {
        fill: #12100b;
        stroke: #fff;
        stroke-miterlimit: 10;
        stroke-width: 2px;
      }
    </style>
  </defs>
  <g id="Capa_1-2" data-name="Capa 1">
    <path class="cls-1" d="m55.87,123.72v-.82c2.67-.72,4.6-3.08,4.32-5.82-.3-2.88-3.1-5.01-6.25-5.01-.83,0-1.54-.53-1.72-1.27l-1.21-5.04c-.63-2.61-1.44-5.17-2.45-7.67-2.86-7.05-8.91-6.59-4.12-24.28.29-1.07,1.01-1.99,2-2.59.15-.08.3-.17.44-.27,1.24-.65,2.62-1.7,2.46-3.09.27-.71.42-1.47.42-2.28v-21.44c.05-.05.1-.1.15-.15,0,0-.04-.02-.1-.06v-5.02h0v-7.33s-.04.03-.05.05v-6.75l5.01-8.78h.61v-1.07h0s0,0,0,0v-7.38l-2.99-1.84V1h-6.55v2.55c0,1.09-.88,1.97-1.97,1.97h-1.17c-1.09,0-1.99-.89-1.99-1.99V1h-5.98v2.55c0,1.09-.88,1.97-1.97,1.97h-.89c-1.09,0-1.99-.89-1.99-1.99V1h-6.84v2.27c0,1.09-.88,1.97-1.97,1.97h-.6c-1.09,0-1.99-.89-1.99-1.99V1h-6.2v4.59l-2.1,2.09-.11.11v8.31h.6l4.95,8.65v19.21s-.08.04-.08.04c.03.03.05.05.08.08v21.51c0,.86.17,1.68.48,2.44-.04,1.2,1.07,2.14,2.18,2.77.31.22.64.42.99.59.86.6,1.48,1.45,1.74,2.43,4.79,17.69-1.26,17.24-4.12,24.28-1.02,2.5-1.83,5.07-2.45,7.67l-1.21,5.04c-.18.74-.89,1.27-1.72,1.27-3.15,0-5.95,2.12-6.25,5.01-.28,2.74,1.65,5.1,4.32,5.82v.82c-4.95.06-8.94,3.97-8.57,8.6.34,4.23,4.39,7.4,9,7.4h45.42c4.61,0,8.65-3.17,9-7.4.38-4.64-3.61-8.54-8.57-8.6Z"/>
  </g>
</svg>